<svg width="20" height="25" fill="none" xmlns="http://www.w3.org/2000/svg"><path d="M17.11 16.333l-1.467-.43-3.192-2.086v-.478a4.248 4.248 0 001.676-2.984.975.975 0 00.82-.961V8.08l-.002-.015V6.4a.722.722 0 00.302-.59V4.29l2.203-.376a.77.77 0 00.648-.715.77.77 0 00-.542-.799L10.129.037a.777.777 0 00-.473 0L2.229 2.399a.77.77 0 00-.542.799.771.771 0 00.299.565v1.991h-.018a.76.76 0 00-.759.759V7.5l-.49 2.874a.815.815 0 00.804.952h1.658a.815.815 0 00.803-.952L3.494 7.5v-.988a.76.76 0 00-.758-.759h-.018V3.98l1.821.31v1.52c0 .241.117.456.3.589l.001 1.68v1.314c0 .484.355.887.819.961a4.25 4.25 0 001.675 2.983v.48l-3.191 2.085-1.466.43A3.724 3.724 0 000 19.908V21a.366.366 0 00.733 0v-1.092c0-1.32.884-2.5 2.15-2.872l1.366-.401 5.457 3.243a.37.37 0 00.374 0l5.458-3.243 1.366.4a3.01 3.01 0 012.15 2.873v3.537a.824.824 0 01-.823.823h-1.614v-1.579a.366.366 0 10-.732 0v1.579H3.9v-1.579a.366.366 0 10-.732 0v1.579H1.555a.824.824 0 01-.823-.823v-.734a.366.366 0 00-.732 0v.734C0 24.302.698 25 1.555 25h16.676c.858 0 1.555-.698 1.555-1.555v-3.537a3.724 3.724 0 00-2.676-3.575zM3.18 10.594H1.524a.083.083 0 01-.081-.096l.442-2.6h.935l.443 2.6a.083.083 0 01-.081.096zm-.418-4.081v.653h-.82v-.653c0-.015.011-.027.026-.027h.768c.015 0 .026.012.026.027zM8.584 18.22l.145.224-3.738-2.221 2.373-1.55a7.693 7.693 0 001.22 3.547zm-.003-1.58a9.414 9.414 0 002.625 0c-.167.41-.373.805-.617 1.18l-.696 1.07-.696-1.07a6.994 6.994 0 01-.616-1.18zm2.622 1.58a7.692 7.692 0 001.22-3.547l2.373 1.55-3.739 2.221.146-.224zm2.142-11.684h.868v1.177h-.43a.438.438 0 01-.438-.437v-.74zM2.451 3.097L9.878.735a.048.048 0 01.03 0l7.426 2.362c.015.005.036.012.034.05-.003.038-.025.042-.04.044l-2.456.418-.922-.114a.366.366 0 00-.09.727l.655.081v1.502H5.272V4.302l3.789-.469a6.783 6.783 0 011.663 0l1.434.178a.366.366 0 00.09-.727l-1.434-.177a7.513 7.513 0 00-1.843 0l-4.057.502-2.456-.419c-.016-.002-.038-.006-.04-.044-.003-.038.018-.045.033-.05zm3.121 4.617V6.537h.87v.74a.438.438 0 01-.438.437h-.432zm.806 2.453a.567.567 0 00-.564-.532.242.242 0 01-.241-.241v-.948h.431a1.17 1.17 0 001.17-1.17v-.739h5.439v.74c0 .644.524 1.17 1.17 1.17h.43v.947a.242.242 0 01-.24.241.568.568 0 00-.565.532 3.527 3.527 0 01-3.515 3.298 3.527 3.527 0 01-3.515-3.298zm3.515 4.03c.651 0 1.27-.149 1.825-.414v.232c0 .627-.084 1.244-.247 1.84a8.65 8.65 0 01-3.156 0 6.978 6.978 0 01-.247-1.84l-.001-.023v-.209a4.228 4.228 0 001.826.414z" fill="#000"/></svg>