<svg width="27" height="21" fill="none" xmlns="http://www.w3.org/2000/svg"><path d="M24.888 0H2.196c-.446 0-.873.17-1.188.473a1.583 1.583 0 00-.493 1.14v13.71c0 .427.178.837.493 1.14a1.72 1.72 0 001.188.473h8.662l-.56 1.612H8.92a.43.43 0 00-.297.119.395.395 0 00-.124.285v.806H4.717a.429.429 0 00-.297.118.395.395 0 00-.123.285c0 .107.044.21.123.285a.43.43 0 00.297.118h18.49a.43.43 0 00.297-.118.395.395 0 000-.57.429.429 0 00-.297-.118h-4.622v-.806a.395.395 0 00-.123-.286.43.43 0 00-.297-.118h-1.378l-.56-1.612h8.661a1.719 1.719 0 001.188-.474 1.58 1.58 0 00.493-1.14V1.613a1.58 1.58 0 00-.493-1.139A1.72 1.72 0 0024.888 0zm-7.144 19.355v.403H9.34v-.403h8.404zm-6.56-.807l.56-1.612h3.596l.56 1.612h-4.716zm14.545-3.225a.792.792 0 01-.247.57.86.86 0 01-.594.236H2.196a.86.86 0 01-.594-.237.791.791 0 01-.246-.57v-.806h24.373v.807zM7.64 10.08l-.157 3.629h-.49l-.158-3.63h.805zm-.747-.807l.28-1.613h.129l.28 1.613h-.689zm.345-2.42c-.456 0-.84-.553-.84-1.209 0-.414.44-1.015.839-1.439.36.383.841.996.841 1.44 0 .655-.385 1.209-.84 1.209zm4.573-.806l.05.096v.308H10.18v-.308l.05-.096h1.582zm-1.162-.806l.37-.711.372.71h-.742zm1.211 2.016v6.401c0 .017.002.034.004.05h-1.688a.405.405 0 00.003-.05v-6.4h1.681zm3.782-1.613h1.261v.807h-.42a.43.43 0 00-.297.118.395.395 0 00-.123.285c0 .107.044.21.123.285a.43.43 0 00.297.118h.42v.807h-1.26a.43.43 0 00-.298.118.395.395 0 00-.123.285c0 .107.044.21.123.285a.43.43 0 00.297.118h1.261v.806h-.42a.43.43 0 00-.297.119.395.395 0 00-.123.285c0 .107.044.21.123.285a.43.43 0 00.297.118h.42v.806h-1.26a.43.43 0 00-.298.118.395.395 0 00-.123.286c0 .106.044.21.123.285a.43.43 0 00.297.118h1.261v1.613h-2.942V4.032h2.942v.807h-1.26a.43.43 0 00-.298.118.395.395 0 00-.123.285c0 .107.044.21.123.285a.43.43 0 00.297.118zm5.043 4.839v3.175c0 .017.001.034.004.05H19a.405.405 0 00.004-.05v-3.175h1.681zm-1.68-.807V9.37l.84-1.612.84 1.612v.308h-1.68zm6.723 4.033h-4.206a.405.405 0 00.003-.05V9.273a.395.395 0 00-.044-.18l-1.26-2.42a.41.41 0 00-.155-.162.434.434 0 00-.442 0 .41.41 0 00-.155.162l-1.261 2.42a.393.393 0 00-.044.18v4.385c0 .017.001.034.003.05h-.424V3.63a.395.395 0 00-.123-.285.43.43 0 00-.297-.118h-3.782a.43.43 0 00-.297.118.395.395 0 00-.123.285v10.08h-.424a.387.387 0 00.004-.05V6.05a.393.393 0 00-.044-.181l-1.261-2.42a.41.41 0 00-.155-.162.434.434 0 00-.597.163l-1.26 2.418a.394.394 0 00-.044.18v7.611a.4.4 0 00.004.05h-1.02L8.5 9.695v-.04a.39.39 0 00-.005-.042V9.61l-.389-2.239c.488-.353.815-.995.815-1.727 0-1.036-1.252-2.184-1.395-2.311a.431.431 0 00-.573 0c-.142.127-1.394 1.275-1.394 2.311 0 .732.327 1.374.815 1.727l-.39 2.239a.39.39 0 00-.004.043v.04l.174 4.016H1.356V1.613c0-.214.089-.419.246-.57a.86.86 0 01.594-.237h22.692a.86.86 0 01.594.237.792.792 0 01.247.57V13.71z" fill="#000"/><path d="M5.138 14.92H2.616a.43.43 0 00-.297.117.395.395 0 00-.123.286c0 .107.044.21.123.285a.43.43 0 00.297.118h2.522a.43.43 0 00.297-.118.395.395 0 00.123-.285.395.395 0 00-.123-.286.43.43 0 00-.297-.118zm1.68 0h-.42a.43.43 0 00-.297.117.395.395 0 00-.123.286c0 .107.044.21.123.285a.43.43 0 00.297.118h.42a.43.43 0 00.298-.118.395.395 0 00.123-.285.395.395 0 00-.123-.286.43.43 0 00-.298-.118zm4.202-7.259a.43.43 0 00-.296.118.395.395 0 00-.123.286V12.5c0 .107.044.21.122.285a.43.43 0 00.595 0 .395.395 0 00.123-.285V8.065a.395.395 0 00-.123-.286.43.43 0 00-.297-.118zm8.826 3.226a.43.43 0 00-.298.118.395.395 0 00-.123.285v1.21c0 .107.045.21.123.285a.43.43 0 00.595 0 .395.395 0 00.123-.285v-1.21a.395.395 0 00-.123-.285.43.43 0 00-.297-.118zM2.616 2.42h3.362a.43.43 0 00.297-.119.395.395 0 00.123-.285.395.395 0 00-.123-.285.43.43 0 00-.297-.118H2.616a.43.43 0 00-.297.118.395.395 0 00-.123.285c0 .107.044.21.123.285a.43.43 0 00.297.118zm0 1.209h.84a.43.43 0 00.298-.118.395.395 0 00.123-.285.395.395 0 00-.123-.285.43.43 0 00-.297-.118h-.84a.43.43 0 00-.298.118.395.395 0 00-.123.285c0 .107.044.21.123.285a.43.43 0 00.297.118zm20.171 9.274h1.681a.43.43 0 00.297-.118.395.395 0 00.123-.285.395.395 0 00-.123-.285.43.43 0 00-.297-.118h-1.68a.43.43 0 00-.298.118.395.395 0 00-.123.285c0 .107.044.21.123.285a.43.43 0 00.297.118zm1.261-1.209h.42a.43.43 0 00.297-.119.395.395 0 000-.57.43.43 0 00-.297-.118h-.42a.43.43 0 00-.297.118.395.395 0 000 .57.43.43 0 00.297.119z" fill="#000"/></svg>