<?xml version="1.0" encoding="UTF-8"?>
<svg xmlns="http://www.w3.org/2000/svg" xmlns:xlink="http://www.w3.org/1999/xlink" width="25px" height="25px" viewBox="0 0 25 25" version="1.1">
<g id="surface1">
<path style=" stroke:none;fill-rule:nonzero;fill:rgb(0%,0%,0%);fill-opacity:1;" d="M 12.5 25 C 5.609375 25 0 19.390625 0 12.5 C 0 9.371094 1.152344 6.511719 3.058594 4.316406 C 3.0625 4.3125 3.0625 4.3125 3.0625 4.3125 C 3.082031 4.285156 3.101562 4.261719 3.125 4.242188 C 5.417969 1.640625 8.769531 0 12.5 0 C 16.230469 0 19.585938 1.644531 21.878906 4.246094 C 21.898438 4.265625 21.917969 4.285156 21.9375 4.3125 C 23.84375 6.507812 25 9.371094 25 12.5 C 25 19.390625 19.390625 25 12.5 25 Z M 8.164062 18.921875 C 9.039062 21.855469 10.484375 23.898438 12.109375 24.183594 L 12.109375 18.355469 C 10.875 18.390625 9.554688 18.5625 8.164062 18.921875 Z M 12.890625 18.347656 L 12.890625 24.183594 C 14.527344 23.898438 15.976562 21.828125 16.851562 18.867188 C 15.703125 18.582031 14.371094 18.371094 12.890625 18.347656 Z M 17.628906 19.078125 C 17 21.238281 16.0625 22.949219 14.933594 23.964844 C 17.3125 23.460938 19.429688 22.230469 21.035156 20.523438 C 20.480469 20.195312 19.292969 19.574219 17.628906 19.078125 Z M 3.984375 20.542969 C 5.589844 22.242188 7.695312 23.460938 10.066406 23.964844 C 8.949219 22.957031 8.019531 21.273438 7.390625 19.140625 C 6.289062 19.480469 5.152344 19.9375 3.984375 20.542969 Z M 0.789062 12.890625 C 0.875 15.5625 1.863281 18.007812 3.453125 19.941406 C 4.734375 19.261719 5.980469 18.753906 7.183594 18.386719 C 6.773438 16.75 6.53125 14.886719 6.5 12.890625 Z M 17.832031 18.328125 C 19.710938 18.886719 21.015625 19.597656 21.558594 19.925781 C 23.144531 17.996094 24.125 15.554688 24.210938 12.890625 L 18.496094 12.890625 C 18.46875 14.859375 18.234375 16.703125 17.832031 18.328125 Z M 7.285156 12.890625 C 7.3125 14.785156 7.554688 16.585938 7.957031 18.167969 C 9.421875 17.789062 10.8125 17.609375 12.109375 17.574219 L 12.109375 12.890625 Z M 12.890625 17.570312 C 14.445312 17.59375 15.847656 17.8125 17.058594 18.117188 C 17.449219 16.546875 17.6875 14.765625 17.714844 12.890625 L 12.890625 12.890625 Z M 18.496094 12.109375 L 24.210938 12.109375 C 24.125 9.421875 23.128906 6.964844 21.519531 5.027344 C 20.246094 5.703125 19.003906 6.207031 17.804688 6.570312 C 18.222656 8.21875 18.46875 10.097656 18.496094 12.109375 Z M 12.890625 12.109375 L 17.714844 12.109375 C 17.6875 10.195312 17.441406 8.382812 17.035156 6.789062 C 15.574219 7.167969 14.183594 7.34375 12.890625 7.382812 Z M 7.285156 12.109375 L 12.109375 12.109375 L 12.109375 7.386719 C 10.558594 7.363281 9.160156 7.144531 7.953125 6.84375 C 7.554688 8.421875 7.3125 10.21875 7.285156 12.109375 Z M 0.789062 12.109375 L 6.5 12.109375 C 6.53125 10.121094 6.769531 8.265625 7.179688 6.632812 C 5.324219 6.082031 4.023438 5.378906 3.464844 5.046875 C 1.867188 6.980469 0.875 9.433594 0.789062 12.109375 Z M 8.160156 6.089844 C 9.304688 6.375 10.636719 6.582031 12.109375 6.605469 L 12.109375 0.816406 C 10.480469 1.101562 9.035156 3.152344 8.160156 6.089844 Z M 12.890625 0.816406 L 12.890625 6.601562 C 14.121094 6.5625 15.4375 6.394531 16.824219 6.035156 C 15.945312 3.125 14.507812 1.097656 12.890625 0.816406 Z M 3.992188 4.449219 C 4.5625 4.78125 5.738281 5.390625 7.382812 5.878906 C 8.011719 3.738281 8.945312 2.046875 10.066406 1.035156 C 7.699219 1.539062 5.59375 2.753906 3.992188 4.449219 Z M 14.933594 1.035156 C 16.042969 2.035156 16.96875 3.707031 17.597656 5.816406 C 18.691406 5.480469 19.824219 5.027344 20.984375 4.425781 C 19.382812 2.742188 17.289062 1.535156 14.933594 1.035156 Z M 14.933594 1.035156 "/>
</g>
</svg>
