<?xml version="1.0" encoding="UTF-8"?>
<svg xmlns="http://www.w3.org/2000/svg" xmlns:xlink="http://www.w3.org/1999/xlink" width="25px" height="25px" viewBox="0 0 25 25" version="1.1">
<g id="surface1">
<path style="fill:none;stroke-width:4;stroke-linecap:round;stroke-linejoin:miter;stroke:rgb(16.862745%,30.588235%,63.529412%);stroke-opacity:1;stroke-miterlimit:10;" d="M 355.606562 675.09875 L 300.499375 675.09875 C 293.10875 675.139063 287.129063 681.11875 287.102188 688.495937 L 287.102188 725.798437 C 287.129063 733.189062 293.10875 739.16875 300.499375 739.195625 L 355.606562 739.195625 C 362.98375 739.16875 368.963438 733.189062 369.00375 725.798437 L 369.00375 688.495937 C 368.923125 681.132187 362.970313 675.165938 355.606562 675.09875 Z M 355.606562 675.09875 " transform="matrix(0.290698,0,0,0.290698,-82.877907,-195.421512)"/>
<path style="fill:none;stroke-width:4;stroke-linecap:round;stroke-linejoin:miter;stroke:rgb(16.862745%,30.588235%,63.529412%);stroke-opacity:1;stroke-miterlimit:10;" d="M -0.0034375 -0.005 L 79.197187 -0.005 " transform="matrix(0.290698,0,0,0.290698,0.872093,15.188953)"/>
<path style="fill:none;stroke-width:4;stroke-linecap:round;stroke-linejoin:miter;stroke:rgb(16.862745%,30.588235%,63.529412%);stroke-opacity:1;stroke-miterlimit:10;" d="M 334.697812 747.594062 L 321.394688 747.594062 C 320.440625 747.6075 319.526875 747.23125 318.855 746.545938 C 318.169688 745.874063 317.793438 744.960312 317.793438 744.00625 L 317.793438 742.595312 C 317.793438 741.64125 318.169688 740.7275 318.855 740.055625 C 319.526875 739.370312 320.440625 738.994063 321.394688 738.994063 L 334.697812 738.994063 C 335.651875 738.994063 336.579063 739.370312 337.250938 740.055625 C 337.922813 740.7275 338.299062 741.64125 338.299062 742.595312 L 338.299062 744.00625 C 338.299062 744.960312 337.922813 745.874063 337.250938 746.545938 C 336.579063 747.23125 335.651875 747.6075 334.697812 747.594062 Z M 334.697812 747.594062 " transform="matrix(0.290698,0,0,0.290698,-82.877907,-195.421512)"/>
<path style="fill:none;stroke-width:4;stroke-linecap:round;stroke-linejoin:miter;stroke:rgb(16.862745%,30.588235%,63.529412%);stroke-opacity:1;stroke-miterlimit:10;" d="M 359.00625 755.29375 L 297.005625 755.29375 C 294.842188 755.29375 293.095313 753.560313 293.095313 751.396875 C 293.095313 749.246875 294.842188 747.5 297.005625 747.5 L 359.00625 747.5 C 361.15625 747.5 362.903125 749.246875 362.903125 751.396875 C 362.916563 752.445 362.513438 753.439375 361.774375 754.178437 C 361.035313 754.904063 360.040938 755.320625 359.00625 755.29375 Z M 359.00625 755.29375 " transform="matrix(0.290698,0,0,0.290698,-82.877907,-195.421512)"/>
<path style="fill:none;stroke-width:4;stroke-linecap:round;stroke-linejoin:miter;stroke:rgb(16.862745%,30.588235%,63.529412%);stroke-opacity:1;stroke-miterlimit:10;" d="M 12.002188 0.0021875 L 0.0025 11.894375 " transform="matrix(0.290698,0,0,0.290698,13.343023,11.206395)"/>
<path style="fill:none;stroke-width:4;stroke-linecap:round;stroke-linejoin:miter;stroke:rgb(16.862745%,30.588235%,63.529412%);stroke-opacity:1;stroke-miterlimit:10;" d="M 11.905625 -0.0009375 L 0 11.904687 " transform="matrix(0.290698,0,0,0.290698,17.5,9.840116)"/>
</g>
</svg>
