<svg width="27" height="24" fill="none" xmlns="http://www.w3.org/2000/svg"><path d="M.515 0v20.52h8.362v1.468H7.35v1.465h12.386v-1.465h-1.528V20.52h8.362V0H.515zM16.68 21.988h-6.276V20.52h6.276v1.468zm8.363-2.932H2.042v-2.934h23v2.934zm0-4.399H2.042V1.465h23v13.192z" fill="#000"/><path d="M10.893 5.413l-1.08-1.035L5.976 8.06l3.839 3.684 1.08-1.036-2.76-2.648 2.76-2.648zm6.377-1.035l-1.079 1.035 2.76 2.648-2.76 2.648 1.08 1.036 3.838-3.684-3.838-3.683zm-3.583-.733l-1.78 8.547 1.498.285 1.78-8.548-1.498-.284z" fill="#000"/></svg>