<svg width="54" height="73" fill="none" xmlns="http://www.w3.org/2000/svg"><g filter="url(#filter0_d)"><path d="M26.972 65L8.186 59.78 4 12.773h46l-4.19 46.998L26.971 65z" fill="#4353AD"/><path d="M42.222 56.78l3.58-40.162H27v44.386l15.222-4.225z" fill="#485FB5"/><path d="M27 49.023l-.025.007-6.414-1.734-.41-4.597h-5.78l.806 9.052 11.797 3.278.026-.008v-5.998zm-14.44-26.64l.523 5.765H27v-5.765H12.56zm1.037 11.668l.516 5.765H27v-5.765H13.597z" fill="#EDEDED"/><path d="M31.565 0h6.975v2.54h-4.058v.508h4.058v5.84h-6.975V6.22h4.059v-.508h-4.058V0zm-8.37 0h6.975v2.54h-4.058v.508h4.058v5.84h-6.974V6.22h4.058v-.508h-4.059V0zm-8.37 0h6.976v2.92h-4.058v2.92H21.8v2.92h-6.975V0z" fill="#100F0D"/><path d="M40.366 34.051l1.04-11.668H26.98v5.765h8.115l-.524 5.903h-7.59v5.765h7.09l-.668 7.477-6.423 1.735v5.998l11.806-3.275.086-.974 1.354-15.178.14-1.548z" fill="#fff"/></g><defs><filter id="filter0_d" x="0" y="0" width="54" height="73" filterUnits="userSpaceOnUse" color-interpolation-filters="sRGB"><feFlood flood-opacity="0" result="BackgroundImageFix"/><feColorMatrix in="SourceAlpha" values="0 0 0 0 0 0 0 0 0 0 0 0 0 0 0 0 0 0 127 0"/><feOffset dy="4"/><feGaussianBlur stdDeviation="2"/><feColorMatrix values="0 0 0 0 0 0 0 0 0 0 0 0 0 0 0 0 0 0 0.25 0"/><feBlend in2="BackgroundImageFix" result="effect1_dropShadow"/><feBlend in="SourceGraphic" in2="effect1_dropShadow" result="shape"/></filter></defs></svg>